<?xml version="1.0" encoding="UTF-8"?>
<svg width="25px" height="25px" viewBox="0 0 25 25" version="1.1" xmlns="http://www.w3.org/2000/svg" xmlns:xlink="http://www.w3.org/1999/xlink">
    <title>Group</title>
    <g id="Page-1" stroke="none" stroke-width="1" fill="none" fill-rule="evenodd">
        <g id="Group">
            <path d="M25,0 L25,25 L0,25 L0,0 L25,0 Z M20.1552443,6.02564637 C18.1216896,4.46205892 15.0936229,4.74330377 13.2307681,6.48099518 L13.2307681,6.48099518 L12.4997275,7.16067024 L11.7686869,6.48099518 C9.90212121,4.74330377 6.87776533,4.46205892 4.8442107,6.02564637 C2.51378679,7.82025639 2.39132821,11.0411796 4.48054582,12.9864565 L4.48054582,12.9864565 L11.6610717,19.6760662 C12.12493,20.1079779 12.8782358,20.1079779 13.3420941,19.6760662 L13.3420941,19.6760662 L20.52262,12.9864565 C22.6081268,11.0411796 22.4856682,7.82025639 20.1552443,6.02564637 Z" id="Combined-Shape" fill="#FFFEFE"></path>
            <path d="M4.8442107,6.02564637 C6.87776533,4.46205892 9.90212121,4.74330377 11.7686869,6.48099518 L12.4997275,7.16067024 L13.2307681,6.48099518 C15.0936229,4.74330377 18.1216896,4.46205892 20.1552443,6.02564637 C22.4856682,7.82025639 22.6081268,11.0411796 20.52262,12.9864565 L13.3420941,19.6760662 C12.8782358,20.1079779 12.12493,20.1079779 11.6610717,19.6760662 L4.48054582,12.9864565 C2.39132821,11.0411796 2.51378679,7.82025639 4.8442107,6.02564637 Z" id="Path" stroke="#000000" fill-rule="nonzero"></path>
        </g>
    </g>
</svg>